<?xml version="1.0" encoding="UTF-8"?>
<svg width="126px" height="200px" viewBox="0 0 126 200" version="1.1" xmlns="http://www.w3.org/2000/svg">
    <g stroke="none" stroke-width="1" fill="none" fill-rule="evenodd">
        <path d="M0,138.249585 L36.4145058,196.671832 L38.692,200.325585 L16.943,200.325585 L14.6663039,196.671831 L0,173.137585 L0,138.249585 Z M11.010671,0.326584542 C20.883691,0.326584542 38.7991028,9.54628912 56.9001081,9.54628912 C55.100412,10.9049677 52.1449737,12.3221368 48.5793259,13.6808154 C59.1806604,23.2162295 66.2725876,36.0440428 68.9608836,49.7851588 L96.6677665,94.2064748 C101.330104,101.667931 111.172192,116.252583 126,127.638563 C108.07334,127.638563 96.1897223,128.071959 81.0329071,104.022363 L66.8237445,81.2377196 C65.7720471,84.1897446 64.4616434,87.0720034 62.954398,89.8830866 L91.1983778,135.19445 C95.9085198,142.727082 105.632502,157.182772 120.530611,168.638518 C102.603951,168.638518 90.7203336,169.072618 75.5635184,145.023023 L51.2338775,106.002594 C49.4341815,107.946886 47.5051322,109.821411 45.4832863,111.660701 L79.8068643,166.718891 C84.0586462,173.501008 92.3456841,185.895426 104.862008,196.660556 L109.125038,200.150274 L106.494784,200.149664 C98.083797,200.135871 90.9758356,199.911067 84.1176989,196.671832 C77.5375602,193.590845 71.2048798,187.69948 64.1579449,176.522799 L30.7004706,122.847953 C28.504279,124.241866 26.2490349,125.588565 23.9234901,126.865497 L64.7540941,192.361833 L67.4648865,196.671832 C68.2377425,197.816101 69.0843748,199.039983 70.0053358,200.325588 L47.956,200.325585 L45.6829404,196.671832 L7.05977609,134.714543 C4.74093192,135.609526 2.39034957,136.443326 0.00120479007,137.235326 L0.000140491026,78.947146 C19.6009626,75.4044715 36.6141593,61.8881899 36.6141593,45.2278072 C36.6141593,34.8840921 31.9743179,27.6213637 26.2237267,19.58557 C22.8464846,20.1359476 19.7757532,20.4516571 17.3658476,20.4516571 C6.74482899,20.4516571 0.994237624,14.7590199 0.586494025,9.1713841 C0.586494025,4.13412592 4.65268234,0.326584542 11.010671,0.326584542 Z" fill="#444444" fill-rule="nonzero"></path>
        <path d="M35.3542888,18 C39.6897847,21.7435511 52,35.0964382 52,51.9375067 C52,77.970019 28.764171,102.3525 -5.17631617e-05,107.855286 L-0.000502576719,91.1228805 C24.9416205,86.5542929 44.9724373,67.5723027 44.9724373,46.1060982 C44.9724373,33.6862925 36.8426776,24.321101 32.2393844,18.711387 L32.2393844,18.711387 Z" fill="#DBE4EC"></path>
    </g>
</svg>
